<svg viewBox="0 0 303 157" xmlns="http://www.w3.org/2000/svg"><path d="M81.04 128.52C32.25 128.52 11 99.45 11 64.26 11 29.75 33.61 0 81.04 0c48.79 0 70.04 29.07 70.04 64.26 0 25.5-12.41 48.45-37.91 58.65 3.06 1.19 6.12 3.06 10.03 6.29l24.48 20.57h-29.75c-6.12 0-7.48-1.36-11.22-4.42l-20.57-17c-1.7 0-3.4.17-5.1.17zm0-21.59c30.09 0 41.82-19.55 41.82-42.67s-11.73-42.67-41.82-42.67-41.82 19.55-41.82 42.67 11.73 42.67 41.82 42.67zm94.26 18.87v-17.68l39.95-29.58c20.91-15.47 30.26-24.82 30.26-36.38 0-13.77-7.82-21.08-26.69-21.08-11.73 0-27.2 3.06-37.91 7.65V7.99C190.94 3.91 203.18 0 220.69 0c37.4 0 52.7 15.3 52.7 40.97 0 24.31-21.25 38.59-41.14 52.7l-17 12.07h69.02v20.06H175.3z" fill="currentColor"/></svg>