<svg viewBox="0 0 303 157" xmlns="http://www.w3.org/2000/svg"><path d="M15 125.8V2.7h52.2c36.9 0 57.4 12.8 57.4 36.9 0 17.5-11.4 29.1-31.4 34.5 4.1 1.9 7.5 4.9 11 9l34.7 42.7h-34.2L74.1 87.5c-5.9-7.4-8.5-8.8-20.9-8.8H42.3v47.1H15zm49.3-103h-22v36h22c22.9 0 31.6-6.9 31.6-18.8 0-11.4-10-17.2-31.6-17.2zm149.2 105.7c-42.3 0-62-16.8-62-36.4 0-13.9 9.7-25.6 31.1-31.4-16.3-5.1-24.7-14.6-24.7-26.7 0-20.6 20.3-34 55.6-34 35.7 0 55.8 13.4 55.8 34 0 12.1-8 21.6-24.1 26.7 21 5.8 30.4 17.5 30.4 31.4 0 19.6-19.7 36.4-62.1 36.4zm0-19.7c23.2 0 33.9-9.9 33.9-19 0-9.2-9.9-18.9-33.9-18.9-23.6 0-33.8 9.7-33.8 18.9 0 9.1 10.5 19 33.8 19zm0-56.6c19.4 0 28.1-6.8 28.1-16s-9.9-17-28.1-17c-18.2 0-28 7.8-28 17s8.7 16 28 16z" fill="currentColor"/></svg>